{"title":"Gone Fishin' [1997] DVDRip","uid":6610446,"size":734022457,"categoryP":"video","categoryS":"movies","magnet":"?xt=urn:btih:f3eda03f0dac29ec675dd5c06117dd42b52adb0c&amp;dn=Gone+Fishin%5C%27+%5B1997%5D+DVDRip&amp;tr=udp%3A%2F%2Ftracker.openbittorrent.com%3A80&amp;tr=udp%3A%2F%2Fopen.demonii.com%3A1337&amp;tr=udp%3A%2F%2Ftracker.coppersurfer.tk%3A6969&amp;tr=udp%3A%2F%2Fexodus.desync.com%3A6969","seeders":1,"leechers":0,"uploader":"RetroidPrime91","files":3,"time":1313570344,"description":"Two fishing fanatics get in trouble when their fishing boat gets stolen while on a trip.\n\n\nFormat : AVI\nFormat/Info : Audio Video Interleave\nFile size : 700 MiB\nDuration : 1h 34mn\nOverall bit rate : 1 037 Kbps\nWriting application : VirtualDubMod 1.5.4.1 (build 2178/release)\nWriting library : VirtualDubMod build 2178/release\n\nVideo\n\nFormat : MPEG-4 Visual\nFormat profile : Advanced Simple@L5\nFormat settings, BVOP : Yes\nFormat settings, QPel : No\nFormat settings, GMC : No warppoints\nFormat settings, Matrix : Custom\nCodec ID : XVID\nCodec ID/Hint : XviD\nDuration : 1h 34mn\nBit rate : 902 Kbps\nWidth : 720 pixels\nHeight : 400 pixels\nDisplay aspect ratio : 16:9\nFrame rate : 23.976 fps\nColor space : YUV\nChroma subsampling : 4:2:0\nBit depth : 8 bits\nScan type : Progressive\nCompression mode : Lossy\nBits/(Pixel*Frame) : 0.131\nStream size : 609 MiB (87%)\nWriting library : XviD 1.2.1 (UTC 2008-12-04)\n\nAudio\n\nFormat : MPEG Audio\nFormat version : Version 1\nFormat profile : Layer 3\nMode : Joint stereo\nCodec ID : 55\nCodec ID/Hint : MP3\nDuration : 1h 34mn\nBit rate mode : Constant\nBit rate : 128 Kbps\nChannel(s) : 2 channels\nSampling rate : 48.0 KHz\nCompression mode : Lossy\nStream size : 86.4 MiB (12%)\nAlignment : Aligned on interleaves\nInterleave, duration : 83 ms (2.00 video frames)\nInterleave, preload duration : 504 ms\nWriting library : LAME3.98r\nEncoding settings : -m j -V 4 -q 2 -lowpass 17.5 -b 128\nLanguage : English\n\nPlease seed &amp; thank you for downloading, comments are appreciated.","torrent":{"xt":"urn:btih:f3eda03f0dac29ec675dd5c06117dd42b52adb0c","amp;dn":"Gone+Fishin%5C%27+%5B1997%5D+DVDRip","amp;tr":["udp%3A%2F%2Ftracker.openbittorrent.com%3A80","udp%3A%2F%2Fopen.demonii.com%3A1337","udp%3A%2F%2Ftracker.coppersurfer.tk%3A6969","udp%3A%2F%2Fexodus.desync.com%3A6969"],"infoHash":"f3eda03f0dac29ec675dd5c06117dd42b52adb0c","infoHashBuffer":{"type":"Buffer","data":[243,237,160,63,13,172,41,236,103,93,213,192,97,23,221,66,181,42,219,12]},"announce":[],"urlList":[]}}